<svg id="visual" viewBox="0 0 900 600" width="900" height="600" xmlns="http://www.w3.org/2000/svg" xmlns:xlink="http://www.w3.org/1999/xlink" version="1.1"><rect x="0" y="0" width="900" height="600" fill="#0a0a14"></rect><path d="M509 0L334 0L334 86L455 86L455 171L526 171L526 257L479 257L479 343L397 343L397 429L515 429L515 514L411 514L411 600L0 600L0 514L0 514L0 429L0 429L0 343L0 343L0 257L0 257L0 171L0 171L0 86L0 86L0 0L0 0Z" fill="#9900ff"></path><path d="M237 0L371 0L371 86L317 86L317 171L280 171L280 257L215 257L215 343L357 343L357 429L256 429L256 514L353 514L353 600L0 600L0 514L0 514L0 429L0 429L0 343L0 343L0 257L0 257L0 171L0 171L0 86L0 86L0 0L0 0Z" fill="#7700c6"></path><path d="M146 0L174 0L174 86L111 86L111 171L233 171L233 257L83 257L83 343L80 343L80 429L180 429L180 514L212 514L212 600L0 600L0 514L0 514L0 429L0 429L0 343L0 343L0 257L0 257L0 171L0 171L0 86L0 86L0 0L0 0Z" fill="#560090"></path></svg>